<?xml version="1.0" encoding="UTF-8" standalone="no"?>
<!-- Created with Inkscape (http://www.inkscape.org/) -->

<svg
   xmlns:dc="http://purl.org/dc/elements/1.1/"
   xmlns:cc="http://creativecommons.org/ns#"
   xmlns:rdf="http://www.w3.org/1999/02/22-rdf-syntax-ns#"
   xmlns:svg="http://www.w3.org/2000/svg"
   xmlns="http://www.w3.org/2000/svg"
   xmlns:sodipodi="http://sodipodi.sourceforge.net/DTD/sodipodi-0.dtd"
   xmlns:inkscape="http://www.inkscape.org/namespaces/inkscape"
   width="16"
   height="16"
   id="svg2"
   version="1.1"
   inkscape:version="0.48.5 r10040"
   sodipodi:docname="favicon.svg"
   inkscape:export-filename="/home/herman/Repos/chemlambda-ide/favicon-32x32.png"
   inkscape:export-xdpi="180"
   inkscape:export-ydpi="180">
  <defs
     id="defs4" />
  <sodipodi:namedview
     id="base"
     pagecolor="#ffffff"
     bordercolor="#666666"
     borderopacity="1.0"
     inkscape:pageopacity="0.0"
     inkscape:pageshadow="2"
     inkscape:zoom="26.28125"
     inkscape:cx="-0.82296276"
     inkscape:cy="10.051385"
     inkscape:document-units="px"
     inkscape:current-layer="layer1"
     showgrid="true"
     inkscape:window-width="1920"
     inkscape:window-height="1014"
     inkscape:window-x="0"
     inkscape:window-y="37"
     inkscape:window-maximized="1"
     inkscape:snap-bbox="true"
     inkscape:snap-bbox-midpoints="true"
     inkscape:snap-nodes="false">
    <inkscape:grid
       type="xygrid"
       id="grid2985"
       empspacing="5"
       visible="true"
       enabled="true"
       snapvisiblegridlinesonly="true" />
  </sodipodi:namedview>
  <metadata
     id="metadata7">
    <rdf:RDF>
      <cc:Work
         rdf:about="">
        <dc:format>image/svg+xml</dc:format>
        <dc:type
           rdf:resource="http://purl.org/dc/dcmitype/StillImage" />
        <dc:title></dc:title>
      </cc:Work>
    </rdf:RDF>
  </metadata>
  <g
     inkscape:label="Layer 1"
     inkscape:groupmode="layer"
     id="layer1"
     transform="translate(0,-1036.3622)">
    <path
       style="font-size:medium;font-style:normal;font-variant:normal;font-weight:normal;font-stretch:normal;text-indent:0;text-align:start;text-decoration:none;line-height:normal;letter-spacing:normal;word-spacing:normal;text-transform:none;direction:ltr;block-progression:tb;writing-mode:lr-tb;text-anchor:start;baseline-shift:baseline;color:#000000;fill:#ffffff;fill-opacity:1;stroke:none;stroke-width:2;marker:none;visibility:visible;display:inline;overflow:visible;enable-background:accumulate;font-family:Sans;-inkscape-font-specification:Sans"
       d="M 14 -0.15625 A 1.0001 1.0001 0 0 0 13.0625 0.6875 C 13.0625 0.6875 11.81675 4.40395 10.21875 7.96875 C 9.4197502 9.75105 8.5077283 11.49065 7.6875 12.65625 C 7.2773859 13.23895 6.8738469 13.6672 6.59375 13.875 C 6.4429286 13.9869 6.475344 13.95575 6.4375 13.96875 C 6.359102 13.67195 6.3074897 13.1349 6.28125 12.5 C 6.231361 11.292868 6.2984625 9.6672698 6.34375 8.03125 C 6.3140725 8.0966861 6.2794145 8.1531303 6.25 8.21875 C 5.4888718 9.9166262 4.8125105 11.650542 4.3125 13 C 4.3512004 13.53436 4.4142607 14.025989 4.53125 14.46875 C 4.6780016 15.02405 4.914974 15.68 5.6875 15.9375 C 6.4577847 16.1943 7.2449407 15.9215 7.8125 15.5 C 8.3800593 15.0789 8.8632391 14.4953 9.34375 13.8125 C 10.304772 12.4468 11.20525 10.62385 12.03125 8.78125 C 13.68325 5.09595 14.9375 1.3125 14.9375 1.3125 A 1.0001 1.0001 0 0 0 14 -0.15625 z M 4 0 C 3.1666667 0 2.4616011 0.41335 1.96875 0.90625 C 1.4758989 1.39905 1.1235642 2.0029 0.84375 2.5625 C 0.28412152 3.6818 0.03125 4.75 0.03125 4.75 A 1.0004882 1.0004882 0 1 0 1.96875 5.25 C 1.96875 5.25 2.2158785 4.3182 2.65625 3.4375 C 2.8764358 2.9971 3.1491011 2.60085 3.40625 2.34375 C 3.6293645 2.1205912 3.7908657 2.0524162 3.9375 2.03125 C 3.9433369 2.0461037 3.9229068 2.0358 3.9375 2.0625 C 4.034788 2.241 4.1726781 2.65035 4.25 3.21875 C 4.3241026 3.7633891 4.3636436 4.4473205 4.375 5.1875 C 4.9144423 4.0925078 5.4642849 3.0462202 6.0625 2.15625 C 5.9746262 1.7775841 5.8669638 1.4230256 5.6875 1.09375 C 5.3850649 0.53875 4.7473984 0 4 0 z "
       id="path3027"
       transform="translate(0,1036.3622)" />
    <path
       style="font-size:medium;font-style:normal;font-variant:normal;font-weight:normal;font-stretch:normal;text-indent:0;text-align:start;text-decoration:none;line-height:normal;letter-spacing:normal;word-spacing:normal;text-transform:none;direction:ltr;block-progression:tb;writing-mode:lr-tb;text-anchor:start;baseline-shift:baseline;color:#000000;fill:#ffffff;fill-opacity:1;stroke:none;stroke-width:2;marker:none;visibility:visible;display:inline;overflow:visible;enable-background:accumulate;font-family:Sans;-inkscape-font-specification:Sans"
       d="M 9.75 -0.0625 C 9.56215 -0.06605 9.3685288 -0.04735 9.1875 0 C 8.8254423 0.094 8.4712797 0.2895 8.1875 0.5 C 7.6199407 0.9211 7.1367609 1.5047 6.65625 2.1875 C 5.6952283 3.5532 4.7947502 5.37605 3.96875 7.21875 C 2.3167496 10.90395 1.0625 14.65625 1.0625 14.65625 A 1.0001 1.0001 0 1 0 2.9375 15.3125 C 2.9375 15.3125 4.1832504 11.59605 5.78125 8.03125 C 6.5802498 6.24895 7.4922717 4.50925 8.3125 3.34375 C 8.7226141 2.76095 9.1261531 2.30155 9.40625 2.09375 C 9.5278015 2.00375 9.486887 2.05125 9.53125 2.03125 C 9.60631 2.32685 9.6675932 2.83355 9.6875 3.46875 C 9.7263323 4.7077275 9.6497794 6.3816122 9.59375 8.0625 C 9.6429877 7.9547673 9.70146 7.85828 9.75 7.75 C 10.504311 6.0672825 11.15755 4.3755027 11.65625 3.03125 C 11.626449 2.4899175 11.582733 1.9799907 11.46875 1.53125 C 11.327374 0.97475 11.08716 0.28955 10.3125 0.03125 C 10.119929 -0.0329 9.93785 -0.05895 9.75 -0.0625 z M 15 9.90625 A 1.0001 1.0001 0 0 0 14.03125 10.75 C 14.03125 10.75 13.784122 11.65055 13.34375 12.53125 C 13.123564 12.97165 12.850899 13.39915 12.59375 13.65625 C 12.351727 13.898321 12.188748 13.990138 12.03125 14 C 12.035217 13.989102 12.038595 13.973162 12 13.90625 C 11.899058 13.73135 11.767876 13.3143 11.6875 12.75 C 11.615155 12.242039 11.57678 11.618767 11.5625 10.9375 C 11.016603 12.036358 10.449059 13.054987 9.84375 13.9375 C 9.9344188 14.282798 10.073377 14.600129 10.25 14.90625 C 10.572239 15.46485 11.253681 16 12 16 C 12.833333 16 13.538399 15.5554 14.03125 15.0625 C 14.524101 14.5696 14.876436 13.9971 15.15625 13.4375 C 15.715878 12.3182 15.96875 11.21875 15.96875 11.21875 A 1.0001 1.0001 0 0 0 15 9.90625 z "
       transform="translate(0,1036.3622)"
       id="path3027-0" />
  </g>
</svg>
